<svg xmlns="http://www.w3.org/2000/svg" viewBox="0 0 120 120" width="200" height="200">
  <!-- 蓝色背景圆 -->
  <circle cx="60" cy="60" r="60" fill="#2575e6"/>
  
  <!-- 白色 F 字母，带有圆角 -->
  <path d="M 46 80
           V 48
           C 46 39, 53 32, 62 32
           H 74
           C 77.3 32, 80 34.7, 80 38
           C 80 41.3, 77.3 44, 74 44
           H 62
           C 59.8 44, 58 45.8, 58 48
           V 52
           H 70
           C 73.3 52, 76 54.7, 76 58
           C 76 61.3, 73.3 64, 70 64
           H 58
           V 80
           C 58 83.3, 55.3 86, 52 86
           C 48.7 86, 46 83.3, 46 80 Z"
        fill="#ffffff"/>
</svg>